<svg width="540" height="48" viewBox="0 0 540 48" fill="none" xmlns="http://www.w3.org/2000/svg">
<path d="M0.177734 14.0218L1.37773 13.7218V0.921777L0.177734 0.621776V0.321776H5.47773C7.7444 0.321776 9.37773 0.668443 10.3777 1.36178C11.3777 2.04178 11.8777 2.99511 11.8777 4.22178C11.8777 5.04844 11.6577 5.72178 11.2177 6.24178C10.7777 6.74844 10.2111 7.12844 9.51773 7.38178C8.7844 7.66178 8.0044 7.80844 7.17773 7.82178V7.92178C7.67107 7.94844 8.1044 8.02178 8.47774 8.14178C9.41107 8.43511 10.0444 8.96178 10.3777 9.72178L12.1777 13.7218L13.1777 14.0218V14.3218H10.3777C9.2844 14.3218 8.4844 13.7551 7.97773 12.6218L5.97773 8.12178H4.67773V13.7218L6.07773 14.0218V14.3218H0.177734V14.0218ZM5.47773 7.62178C6.41107 7.62178 7.1444 7.32844 7.67773 6.74178C8.21107 6.15511 8.47774 5.31511 8.47774 4.22178C8.47774 3.12844 8.21107 2.28844 7.67773 1.70178C7.1444 1.11511 6.41107 0.821777 5.47773 0.821777H4.67773V7.62178H5.47773ZM20.3863 14.6218C19.0797 14.6218 17.933 14.3418 16.9463 13.7818C15.973 13.2084 15.2197 12.3751 14.6863 11.2818C14.153 10.1884 13.8863 8.86844 13.8863 7.32178C13.8863 5.77511 14.153 4.45511 14.6863 3.36178C15.2197 2.26844 15.973 1.44178 16.9463 0.881776C17.933 0.308443 19.0797 0.0217767 20.3863 0.0217767C21.693 0.0217767 22.833 0.308443 23.8063 0.881776C24.793 1.44178 25.553 2.26844 26.0863 3.36178C26.6197 4.45511 26.8863 5.77511 26.8863 7.32178C26.8863 8.86844 26.6197 10.1884 26.0863 11.2818C25.553 12.3751 24.793 13.2084 23.8063 13.7818C22.833 14.3418 21.693 14.6218 20.3863 14.6218ZM20.3863 14.2218C20.9063 14.2218 21.3863 14.0018 21.8263 13.5618C22.2797 13.1218 22.653 12.3884 22.9463 11.3618C23.2397 10.3351 23.3863 8.98844 23.3863 7.32178C23.3863 5.65511 23.2397 4.30844 22.9463 3.28178C22.653 2.25511 22.2797 1.52178 21.8263 1.08178C21.3863 0.641776 20.9063 0.421776 20.3863 0.421776C19.8663 0.421776 19.3797 0.641776 18.9263 1.08178C18.4863 1.52178 18.1197 2.25511 17.8263 3.28178C17.533 4.30844 17.3863 5.65511 17.3863 7.32178C17.3863 8.98844 17.533 10.3351 17.8263 11.3618C18.1197 12.3884 18.4863 13.1218 18.9263 13.5618C19.3797 14.0018 19.8663 14.2218 20.3863 14.2218ZM33.691 14.6218C32.7443 14.6218 31.8577 14.4084 31.031 13.9818C30.6577 13.7951 30.3443 13.5751 30.091 13.3218C29.9043 13.6284 29.671 13.9018 29.391 14.1418C29.151 14.3151 29.0177 14.4084 28.991 14.4218H28.491V10.6218H29.291C29.491 11.2751 29.771 11.8618 30.131 12.3818C30.9443 13.5418 31.9977 14.1218 33.291 14.1218C34.051 14.1218 34.6577 13.8951 35.111 13.4418C35.5643 12.9884 35.791 12.3818 35.791 11.6218C35.791 11.1818 35.6577 10.7884 35.391 10.4418C35.1377 10.0951 34.8177 9.78844 34.431 9.52178C34.0443 9.25511 33.5043 8.92178 32.811 8.52178C31.931 8.02844 31.2177 7.58178 30.671 7.18178C30.1243 6.78178 29.6577 6.28178 29.271 5.68178C28.8843 5.06844 28.691 4.34844 28.691 3.52178C28.691 2.86844 28.871 2.28178 29.231 1.76178C29.6043 1.22844 30.1577 0.808443 30.891 0.501776C31.6243 0.181777 32.5243 0.0217767 33.591 0.0217767C34.3643 0.0217767 35.1377 0.241777 35.911 0.681777C36.2043 0.841777 36.4977 1.05511 36.791 1.32178C37.0177 0.97511 37.251 0.701776 37.491 0.501776C37.731 0.328443 37.8643 0.23511 37.891 0.221776H38.391V4.02178H37.591C37.4177 3.38178 37.1577 2.80178 36.811 2.28178C36.491 1.77511 36.091 1.35511 35.611 1.02178C35.1443 0.688443 34.6043 0.521776 33.991 0.521776C33.471 0.521776 33.0243 0.728443 32.651 1.14178C32.2777 1.55511 32.091 2.08178 32.091 2.72178C32.091 3.21511 32.231 3.66178 32.511 4.06178C32.8043 4.44844 33.1577 4.78844 33.571 5.08178C33.9977 5.37511 34.571 5.72844 35.291 6.14178C36.131 6.62178 36.811 7.04844 37.331 7.42178C37.851 7.79511 38.291 8.26178 38.651 8.82178C39.011 9.36844 39.191 10.0018 39.191 10.7218C39.191 11.4418 38.9843 12.1018 38.571 12.7018C38.1577 13.2884 37.5377 13.7551 36.711 14.1018C35.8843 14.4484 34.8777 14.6218 33.691 14.6218ZM43.1855 14.0218L44.3855 13.7218V0.821777H42.0855C42.0855 1.63511 41.8655 2.41511 41.4255 3.16178C41.2389 3.46844 41.0255 3.72178 40.7855 3.92178H40.1855V0.321776H51.8855V3.92178H51.2855C51.0322 3.72178 50.8122 3.46844 50.6255 3.16178C50.1989 2.44178 49.9855 1.66178 49.9855 0.821777H47.6855V13.7218L48.8855 14.0218V14.3218H43.1855V14.0218ZM59.3902 14.6218C58.0836 14.6218 56.9369 14.3418 55.9502 13.7818C54.9769 13.2084 54.2236 12.3751 53.6902 11.2818C53.1569 10.1884 52.8902 8.86844 52.8902 7.32178C52.8902 5.77511 53.1569 4.45511 53.6902 3.36178C54.2236 2.26844 54.9769 1.44178 55.9502 0.881776C56.9369 0.308443 58.0836 0.0217767 59.3902 0.0217767C60.6969 0.0217767 61.8369 0.308443 62.8102 0.881776C63.7969 1.44178 64.5569 2.26844 65.0902 3.36178C65.6236 4.45511 65.8902 5.77511 65.8902 7.32178C65.8902 8.86844 65.6236 10.1884 65.0902 11.2818C64.5569 12.3751 63.7969 13.2084 62.8102 13.7818C61.8369 14.3418 60.6969 14.6218 59.3902 14.6218ZM59.3902 14.2218C59.9102 14.2218 60.3902 14.0018 60.8302 13.5618C61.2836 13.1218 61.6569 12.3884 61.9502 11.3618C62.2436 10.3351 62.3902 8.98844 62.3902 7.32178C62.3902 5.65511 62.2436 4.30844 61.9502 3.28178C61.6569 2.25511 61.2836 1.52178 60.8302 1.08178C60.3902 0.641776 59.9102 0.421776 59.3902 0.421776C58.8702 0.421776 58.3836 0.641776 57.9302 1.08178C57.4902 1.52178 57.1236 2.25511 56.8302 3.28178C56.5369 4.30844 56.3902 5.65511 56.3902 7.32178C56.3902 8.98844 56.5369 10.3351 56.8302 11.3618C57.1236 12.3884 57.4902 13.1218 57.9302 13.5618C58.3836 14.0018 58.8702 14.2218 59.3902 14.2218ZM67.0043 0.921777L66.0043 0.621776V0.321776H68.4043C69.0976 0.321776 69.6643 0.481776 70.1043 0.801776C70.5443 1.10844 70.8776 1.51511 71.1043 2.02178L74.6443 10.0818L77.9043 1.22178L76.4043 0.621776V0.321776H80.1043V0.621776L78.5043 1.22178L73.6043 14.5218H73.0043L67.0043 0.921777ZM79.409 8.32178V7.42178H87.409V8.32178H79.409ZM95.5035 14.6218C94.1968 14.6218 93.0502 14.3418 92.0635 13.7818C91.0902 13.2084 90.3368 12.3751 89.8035 11.2818C89.2702 10.1884 89.0035 8.86844 89.0035 7.32178C89.0035 5.77511 89.2702 4.45511 89.8035 3.36178C90.3368 2.26844 91.0902 1.44178 92.0635 0.881776C93.0502 0.308443 94.1968 0.0217767 95.5035 0.0217767C96.8102 0.0217767 97.9502 0.308443 98.9235 0.881776C99.9102 1.44178 100.67 2.26844 101.204 3.36178C101.737 4.45511 102.004 5.77511 102.004 7.32178C102.004 8.86844 101.737 10.1884 101.204 11.2818C100.67 12.3751 99.9102 13.2084 98.9235 13.7818C97.9502 14.3418 96.8102 14.6218 95.5035 14.6218ZM95.5035 14.2218C96.0235 14.2218 96.5035 14.0018 96.9435 13.5618C97.3968 13.1218 97.7702 12.3884 98.0635 11.3618C98.3568 10.3351 98.5035 8.98844 98.5035 7.32178C98.5035 5.65511 98.3568 4.30844 98.0635 3.28178C97.7702 2.25511 97.3968 1.52178 96.9435 1.08178C96.5035 0.641776 96.0235 0.421776 95.5035 0.421776C94.9835 0.421776 94.4968 0.641776 94.0435 1.08178C93.6035 1.52178 93.2368 2.25511 92.9435 3.28178C92.6502 4.30844 92.5035 5.65511 92.5035 7.32178C92.5035 8.98844 92.6502 10.3351 92.9435 11.3618C93.2368 12.3884 93.6035 13.1218 94.0435 13.5618C94.4968 14.0018 94.9835 14.2218 95.5035 14.2218ZM105.708 3.72178V13.4218L107.308 14.0218V14.3218H103.508V14.0218L105.108 13.4218V1.02178L103.708 0.621776V0.321776H105.808C106.515 0.321776 107.068 0.448443 107.468 0.701776C107.868 0.95511 108.248 1.29511 108.608 1.72178L115.008 9.22178V1.22178L113.408 0.621776V0.321776H117.208V0.621776L115.608 1.22178V14.6218H115.008L105.708 3.72178ZM118.413 8.32178V7.42178H126.413V8.32178H118.413ZM128.107 14.0218L129.307 13.7218V0.921777L128.107 0.621776V0.321776H133.207C135.594 0.321776 137.421 0.93511 138.687 2.16178C139.967 3.38844 140.607 5.10844 140.607 7.32178C140.607 9.53511 139.967 11.2551 138.687 12.4818C137.421 13.7084 135.594 14.3218 133.207 14.3218H128.107V14.0218ZM133.207 13.8218C134.447 13.8218 135.407 13.3218 136.087 12.3218C136.767 11.3084 137.107 9.64178 137.107 7.32178C137.107 5.00178 136.767 3.34178 136.087 2.34178C135.407 1.32844 134.447 0.821777 133.207 0.821777H132.607V13.8218H133.207ZM148.804 14.6218C147.498 14.6218 146.351 14.3418 145.364 13.7818C144.391 13.2084 143.638 12.3751 143.104 11.2818C142.571 10.1884 142.304 8.86844 142.304 7.32178C142.304 5.77511 142.571 4.45511 143.104 3.36178C143.638 2.26844 144.391 1.44178 145.364 0.881776C146.351 0.308443 147.498 0.0217767 148.804 0.0217767C150.111 0.0217767 151.251 0.308443 152.224 0.881776C153.211 1.44178 153.971 2.26844 154.504 3.36178C155.038 4.45511 155.304 5.77511 155.304 7.32178C155.304 8.86844 155.038 10.1884 154.504 11.2818C153.971 12.3751 153.211 13.2084 152.224 13.7818C151.251 14.3418 150.111 14.6218 148.804 14.6218ZM148.804 14.2218C149.324 14.2218 149.804 14.0018 150.244 13.5618C150.698 13.1218 151.071 12.3884 151.364 11.3618C151.658 10.3351 151.804 8.98844 151.804 7.32178C151.804 5.65511 151.658 4.30844 151.364 3.28178C151.071 2.25511 150.698 1.52178 150.244 1.08178C149.804 0.641776 149.324 0.421776 148.804 0.421776C148.284 0.421776 147.798 0.641776 147.344 1.08178C146.904 1.52178 146.538 2.25511 146.244 3.28178C145.951 4.30844 145.804 5.65511 145.804 7.32178C145.804 8.98844 145.951 10.3351 146.244 11.3618C146.538 12.3884 146.904 13.1218 147.344 13.5618C147.798 14.0018 148.284 14.2218 148.804 14.2218ZM159.009 3.72178V13.4218L160.609 14.0218V14.3218H156.809V14.0218L158.409 13.4218V1.02178L157.009 0.621776V0.321776H159.109C159.816 0.321776 160.369 0.448443 160.769 0.701776C161.169 0.95511 161.549 1.29511 161.909 1.72178L168.309 9.22178V1.22178L166.709 0.621776V0.321776H170.509V0.621776L168.909 1.22178V14.6218H168.309L159.009 3.72178ZM172.414 16.4218C172.694 16.3284 172.974 16.1751 173.254 15.9618C173.827 15.5351 174.18 14.9551 174.314 14.2218L174.054 14.3818C173.88 14.4751 173.667 14.5218 173.414 14.5218C173.014 14.5218 172.66 14.3751 172.354 14.0818C172.06 13.7751 171.914 13.4218 171.914 13.0218C171.914 12.6218 172.06 12.2751 172.354 11.9818C172.66 11.6751 173.014 11.5218 173.414 11.5218C173.88 11.5218 174.26 11.6884 174.554 12.0218C174.86 12.3418 175.014 12.7751 175.014 13.3218C175.014 14.5484 174.614 15.5084 173.814 16.2018C173.467 16.5218 173.067 16.7618 172.614 16.9218L172.414 16.4218ZM184.321 3.72178V13.4218L185.921 14.0218V14.3218H182.121V14.0218L183.721 13.4218V1.02178L182.321 0.621776V0.321776H184.421C185.128 0.321776 185.681 0.448443 186.081 0.701776C186.481 0.95511 186.861 1.29511 187.221 1.72178L193.621 9.22178V1.22178L192.021 0.621776V0.321776H195.821V0.621776L194.221 1.22178V14.6218H193.621L184.321 3.72178ZM195.321 14.0218L196.921 13.4218L202.421 0.121777H203.021L208.721 13.7218L209.721 14.0218V14.3218H207.321C206.627 14.3218 206.061 14.1684 205.621 13.8618C205.181 13.5418 204.854 13.1284 204.641 12.6218L203.621 10.2218H198.841L197.521 13.4218L199.021 14.0218V14.3218H195.321V14.0218ZM199.041 9.72178H203.421L201.221 4.46178L199.041 9.72178ZM212.114 3.72178V13.4218L213.714 14.0218V14.3218H209.914V14.0218L211.514 13.4218V1.02178L210.114 0.621776V0.321776H212.214C212.921 0.321776 213.474 0.448443 213.874 0.701776C214.274 0.95511 214.654 1.29511 215.014 1.72178L221.414 9.22178V1.22178L219.814 0.621776V0.321776H223.614V0.621776L222.014 1.22178V14.6218H221.414L212.114 3.72178ZM230.019 14.6218C229.072 14.6218 228.186 14.4084 227.359 13.9818C226.986 13.7951 226.672 13.5751 226.419 13.3218C226.232 13.6284 225.999 13.9018 225.719 14.1418C225.479 14.3151 225.346 14.4084 225.319 14.4218H224.819V10.6218H225.619C225.819 11.2751 226.099 11.8618 226.459 12.3818C227.272 13.5418 228.326 14.1218 229.619 14.1218C230.379 14.1218 230.986 13.8951 231.439 13.4418C231.892 12.9884 232.119 12.3818 232.119 11.6218C232.119 11.1818 231.986 10.7884 231.719 10.4418C231.466 10.0951 231.146 9.78844 230.759 9.52178C230.372 9.25511 229.832 8.92178 229.139 8.52178C228.259 8.02844 227.546 7.58178 226.999 7.18178C226.452 6.78178 225.986 6.28178 225.599 5.68178C225.212 5.06844 225.019 4.34844 225.019 3.52178C225.019 2.86844 225.199 2.28178 225.559 1.76178C225.932 1.22844 226.486 0.808443 227.219 0.501776C227.952 0.181777 228.852 0.0217767 229.919 0.0217767C230.692 0.0217767 231.466 0.241777 232.239 0.681777C232.532 0.841777 232.826 1.05511 233.119 1.32178C233.346 0.97511 233.579 0.701776 233.819 0.501776C234.059 0.328443 234.192 0.23511 234.219 0.221776H234.719V4.02178H233.919C233.746 3.38178 233.486 2.80178 233.139 2.28178C232.819 1.77511 232.419 1.35511 231.939 1.02178C231.472 0.688443 230.932 0.521776 230.319 0.521776C229.799 0.521776 229.352 0.728443 228.979 1.14178C228.606 1.55511 228.419 2.08178 228.419 2.72178C228.419 3.21511 228.559 3.66178 228.839 4.06178C229.132 4.44844 229.486 4.78844 229.899 5.08178C230.326 5.37511 230.899 5.72844 231.619 6.14178C232.459 6.62178 233.139 7.04844 233.659 7.42178C234.179 7.79511 234.619 8.26178 234.979 8.82178C235.339 9.36844 235.519 10.0018 235.519 10.7218C235.519 11.4418 235.312 12.1018 234.899 12.7018C234.486 13.2884 233.866 13.7551 233.039 14.1018C232.212 14.4484 231.206 14.6218 230.019 14.6218ZM237.014 14.0218L238.214 13.7218V0.921777L237.014 0.621776V0.321776H247.714V3.92178H247.114C246.86 3.72178 246.64 3.46844 246.454 3.16178C246.027 2.44178 245.814 1.66178 245.814 0.821777H241.514V7.12178H243.814C243.907 6.61511 244.08 6.14178 244.334 5.70178C244.44 5.50178 244.567 5.30844 244.714 5.12178H245.314V9.62178H244.714C244.567 9.43511 244.44 9.24178 244.334 9.04178C244.08 8.60178 243.907 8.12844 243.814 7.62178H241.514V13.8218H246.214C246.214 12.9818 246.427 12.2018 246.854 11.4818C247.04 11.1751 247.26 10.9218 247.514 10.7218H248.114V14.3218H237.014V14.0218ZM251.704 3.72178V13.4218L253.304 14.0218V14.3218H249.504V14.0218L251.104 13.4218V1.02178L249.704 0.621776V0.321776H251.804C252.511 0.321776 253.064 0.448443 253.464 0.701776C253.864 0.95511 254.244 1.29511 254.604 1.72178L261.004 9.22178V1.22178L259.404 0.621776V0.321776H263.204V0.621776L261.604 1.22178V14.6218H261.004L251.704 3.72178ZM275.214 14.6218C274.268 14.6218 273.381 14.4084 272.554 13.9818C272.181 13.7951 271.868 13.5751 271.614 13.3218C271.428 13.6284 271.194 13.9018 270.914 14.1418C270.674 14.3151 270.541 14.4084 270.514 14.4218H270.014V10.6218H270.814C271.014 11.2751 271.294 11.8618 271.654 12.3818C272.468 13.5418 273.521 14.1218 274.814 14.1218C275.574 14.1218 276.181 13.8951 276.634 13.4418C277.088 12.9884 277.314 12.3818 277.314 11.6218C277.314 11.1818 277.181 10.7884 276.914 10.4418C276.661 10.0951 276.341 9.78844 275.954 9.52178C275.568 9.25511 275.028 8.92178 274.334 8.52178C273.454 8.02844 272.741 7.58178 272.194 7.18178C271.648 6.78178 271.181 6.28178 270.794 5.68178C270.408 5.06844 270.214 4.34844 270.214 3.52178C270.214 2.86844 270.394 2.28178 270.754 1.76178C271.128 1.22844 271.681 0.808443 272.414 0.501776C273.148 0.181777 274.048 0.0217767 275.114 0.0217767C275.888 0.0217767 276.661 0.241777 277.434 0.681777C277.728 0.841777 278.021 1.05511 278.314 1.32178C278.541 0.97511 278.774 0.701776 279.014 0.501776C279.254 0.328443 279.388 0.23511 279.414 0.221776H279.914V4.02178H279.114C278.941 3.38178 278.681 2.80178 278.334 2.28178C278.014 1.77511 277.614 1.35511 277.134 1.02178C276.668 0.688443 276.128 0.521776 275.514 0.521776C274.994 0.521776 274.548 0.728443 274.174 1.14178C273.801 1.55511 273.614 2.08178 273.614 2.72178C273.614 3.21511 273.754 3.66178 274.034 4.06178C274.328 4.44844 274.681 4.78844 275.094 5.08178C275.521 5.37511 276.094 5.72844 276.814 6.14178C277.654 6.62178 278.334 7.04844 278.854 7.42178C279.374 7.79511 279.814 8.26178 280.174 8.82178C280.534 9.36844 280.714 10.0018 280.714 10.7218C280.714 11.4418 280.508 12.1018 280.094 12.7018C279.681 13.2884 279.061 13.7551 278.234 14.1018C277.408 14.4484 276.401 14.6218 275.214 14.6218ZM284.709 14.0218L285.909 13.7218V0.821777H283.609C283.609 1.63511 283.389 2.41511 282.949 3.16178C282.762 3.46844 282.549 3.72178 282.309 3.92178H281.709V0.321776H293.409V3.92178H292.809C292.556 3.72178 292.336 3.46844 292.149 3.16178C291.722 2.44178 291.509 1.66178 291.509 0.821777H289.209V13.7218L290.409 14.0218V14.3218H284.709V14.0218ZM294.703 14.5218C294.303 14.5218 293.949 14.3751 293.643 14.0818C293.349 13.7751 293.203 13.4218 293.203 13.0218C293.203 12.6218 293.349 12.2751 293.643 11.9818C293.949 11.6751 294.303 11.5218 294.703 11.5218C295.103 11.5218 295.449 11.6751 295.743 11.9818C296.049 12.2751 296.203 12.6218 296.203 13.0218C296.203 13.4218 296.049 13.7751 295.743 14.0818C295.449 14.3751 295.103 14.5218 294.703 14.5218ZM298.507 16.4218C298.787 16.3284 299.067 16.1751 299.347 15.9618C299.921 15.5351 300.274 14.9551 300.407 14.2218L300.147 14.3818C299.974 14.4751 299.761 14.5218 299.507 14.5218C299.107 14.5218 298.754 14.3751 298.447 14.0818C298.154 13.7751 298.007 13.4218 298.007 13.0218C298.007 12.6218 298.154 12.2751 298.447 11.9818C298.754 11.6751 299.107 11.5218 299.507 11.5218C299.974 11.5218 300.354 11.6884 300.647 12.0218C300.954 12.3418 301.107 12.7751 301.107 13.3218C301.107 14.5484 300.707 15.5084 299.907 16.2018C299.561 16.5218 299.161 16.7618 298.707 16.9218L298.507 16.4218ZM308.215 13.4218C308.215 12.6351 308.369 11.9218 308.675 11.2818C308.995 10.6284 309.382 10.0618 309.835 9.58178C310.289 9.10178 310.882 8.53511 311.615 7.88178C312.295 7.28178 312.829 6.78178 313.215 6.38178C313.602 5.96844 313.929 5.50844 314.195 5.00178C314.462 4.48178 314.595 3.92178 314.595 3.32178C314.595 2.44178 314.382 1.75511 313.955 1.26178C313.529 0.768443 312.975 0.521776 312.295 0.521776C311.909 0.521776 311.515 0.57511 311.115 0.681777L310.695 0.821777V4.02178L310.435 4.08178C310.222 4.10844 310.042 4.12178 309.895 4.12178C309.442 4.12178 309.075 3.98844 308.795 3.72178C308.529 3.44178 308.395 3.07511 308.395 2.62178C308.395 2.19511 308.555 1.78178 308.875 1.38178C309.209 0.981777 309.695 0.65511 310.335 0.401777C310.989 0.148443 311.775 0.0217767 312.695 0.0217767C314.495 0.0217767 315.829 0.381777 316.695 1.10178C317.562 1.82178 317.995 2.82844 317.995 4.12178C317.995 4.93511 317.782 5.63511 317.355 6.22178C316.942 6.80844 316.429 7.29511 315.815 7.68178C315.215 8.06844 314.409 8.50844 313.395 9.00178C312.542 9.41511 311.849 9.78178 311.315 10.1018C310.795 10.4084 310.309 10.7818 309.855 11.2218C309.415 11.6618 309.102 12.1618 308.915 12.7218H316.315C316.409 12.0018 316.635 11.4018 316.995 10.9218C317.142 10.6951 317.315 10.4951 317.515 10.3218H318.115V14.3218H308.215V13.4218ZM323.919 14.6218C322.999 14.6218 322.212 14.4951 321.559 14.2418C320.919 13.9884 320.432 13.6618 320.099 13.2618C319.779 12.8618 319.619 12.4484 319.619 12.0218C319.619 11.5684 319.752 11.2084 320.019 10.9418C320.299 10.6618 320.666 10.5218 321.119 10.5218C321.226 10.5218 321.332 10.5351 321.439 10.5618C321.546 10.5751 321.619 10.5818 321.659 10.5818L321.919 10.6218V13.8218C321.932 13.8218 322.072 13.8751 322.339 13.9818C322.686 14.0751 323.079 14.1218 323.519 14.1218C324.452 14.1218 325.166 13.8418 325.659 13.2818C326.166 12.7084 326.419 11.8551 326.419 10.7218C326.419 9.56178 326.172 8.68844 325.679 8.10178C325.199 7.51511 324.546 7.22178 323.719 7.22178H322.719V6.72178H323.719C324.319 6.72178 324.819 6.45511 325.219 5.92178C325.619 5.38844 325.819 4.62178 325.819 3.62178C325.819 2.62178 325.612 1.85511 325.199 1.32178C324.786 0.788443 324.259 0.521776 323.619 0.521776C323.272 0.521776 322.939 0.57511 322.619 0.681777C322.579 0.69511 322.446 0.741777 322.219 0.821777V4.02178L321.959 4.08178C321.746 4.10844 321.566 4.12178 321.419 4.12178C320.966 4.12178 320.599 3.98844 320.319 3.72178C320.052 3.44178 319.919 3.07511 319.919 2.62178C319.919 2.20844 320.079 1.80178 320.399 1.40178C320.719 1.00178 321.186 0.67511 321.799 0.421776C322.426 0.15511 323.166 0.0217767 324.019 0.0217767C325.139 0.0217767 326.086 0.188443 326.859 0.521776C327.646 0.841777 328.232 1.27511 328.619 1.82178C329.019 2.36844 329.219 2.96844 329.219 3.62178C329.219 4.38178 329.026 4.98844 328.639 5.44178C328.252 5.88178 327.746 6.23511 327.119 6.50178C326.506 6.74178 325.806 6.88178 325.019 6.92178V7.02178C325.899 7.06178 326.699 7.21511 327.419 7.48178C329.019 8.12178 329.819 9.20178 329.819 10.7218C329.819 11.8951 329.332 12.8418 328.359 13.5618C327.399 14.2684 325.919 14.6218 323.919 14.6218ZM336.123 14.6218C335.336 14.6218 334.643 14.4951 334.043 14.2418C333.456 13.9751 333.003 13.6418 332.683 13.2418C332.376 12.8418 332.223 12.4351 332.223 12.0218C332.223 11.5684 332.356 11.2084 332.623 10.9418C332.903 10.6618 333.27 10.5218 333.723 10.5218C333.83 10.5218 333.936 10.5351 334.043 10.5618C334.15 10.5751 334.223 10.5818 334.263 10.5818L334.523 10.6218V13.8218L334.903 13.9818C335.143 14.0751 335.416 14.1218 335.723 14.1218C336.376 14.1218 336.91 13.9484 337.323 13.6018C337.736 13.2551 338.056 12.6151 338.283 11.6818C338.51 10.7484 338.623 9.42844 338.623 7.72178C338.503 7.92178 338.316 8.12178 338.063 8.32178C337.556 8.72178 336.976 8.92178 336.323 8.92178C335.35 8.92178 334.496 8.74178 333.763 8.38178C333.043 8.00844 332.49 7.49511 332.103 6.84178C331.716 6.18844 331.523 5.44844 331.523 4.62178C331.523 3.19511 331.963 2.07511 332.843 1.26178C333.736 0.43511 334.996 0.0217767 336.623 0.0217767C338.303 0.0217767 339.623 0.621777 340.583 1.82178C341.543 3.02178 342.023 4.85511 342.023 7.32178C342.023 9.72178 341.496 11.5418 340.443 12.7818C339.403 14.0084 337.963 14.6218 336.123 14.6218ZM336.723 8.42178C337.27 8.42178 337.703 8.15511 338.023 7.62178C338.356 7.08844 338.523 6.25511 338.523 5.12178C338.523 3.42844 338.336 2.22178 337.963 1.50178C337.603 0.781776 337.156 0.421776 336.623 0.421776C336.356 0.421776 336.09 0.55511 335.823 0.821777C335.57 1.08844 335.356 1.52178 335.183 2.12178C335.01 2.72178 334.923 3.48844 334.923 4.42178C334.923 5.35511 335.01 6.12178 335.183 6.72178C335.37 7.32178 335.596 7.75511 335.863 8.02178C336.143 8.28844 336.43 8.42178 336.723 8.42178ZM354.531 14.6218C353.584 14.6218 352.698 14.4084 351.871 13.9818C351.498 13.7951 351.184 13.5751 350.931 13.3218C350.744 13.6284 350.511 13.9018 350.231 14.1418C349.991 14.3151 349.858 14.4084 349.831 14.4218H349.331V10.6218H350.131C350.331 11.2751 350.611 11.8618 350.971 12.3818C351.784 13.5418 352.838 14.1218 354.131 14.1218C354.891 14.1218 355.498 13.8951 355.951 13.4418C356.404 12.9884 356.631 12.3818 356.631 11.6218C356.631 11.1818 356.498 10.7884 356.231 10.4418C355.978 10.0951 355.658 9.78844 355.271 9.52178C354.884 9.25511 354.344 8.92178 353.651 8.52178C352.771 8.02844 352.058 7.58178 351.511 7.18178C350.964 6.78178 350.498 6.28178 350.111 5.68178C349.724 5.06844 349.531 4.34844 349.531 3.52178C349.531 2.86844 349.711 2.28178 350.071 1.76178C350.444 1.22844 350.998 0.808443 351.731 0.501776C352.464 0.181777 353.364 0.0217767 354.431 0.0217767C355.204 0.0217767 355.978 0.241777 356.751 0.681777C357.044 0.841777 357.338 1.05511 357.631 1.32178C357.858 0.97511 358.091 0.701776 358.331 0.501776C358.571 0.328443 358.704 0.23511 358.731 0.221776H359.231V4.02178H358.431C358.258 3.38178 357.998 2.80178 357.651 2.28178C357.331 1.77511 356.931 1.35511 356.451 1.02178C355.984 0.688443 355.444 0.521776 354.831 0.521776C354.311 0.521776 353.864 0.728443 353.491 1.14178C353.118 1.55511 352.931 2.08178 352.931 2.72178C352.931 3.21511 353.071 3.66178 353.351 4.06178C353.644 4.44844 353.998 4.78844 354.411 5.08178C354.838 5.37511 355.411 5.72844 356.131 6.14178C356.971 6.62178 357.651 7.04844 358.171 7.42178C358.691 7.79511 359.131 8.26178 359.491 8.82178C359.851 9.36844 360.031 10.0018 360.031 10.7218C360.031 11.4418 359.824 12.1018 359.411 12.7018C358.998 13.2884 358.378 13.7551 357.551 14.1018C356.724 14.4484 355.718 14.6218 354.531 14.6218ZM361.525 14.3218V14.0218L362.725 13.7218V0.921777L361.525 0.621776V0.321776H367.225V0.621776L366.025 0.921777V7.12178H370.325V0.921777L369.125 0.621776V0.321776H374.825V0.621776L373.625 0.921777V13.7218L374.825 14.0218V14.3218H369.125V14.0218L370.325 13.7218V7.62178H366.025V13.7218L367.225 14.0218V14.3218H361.525ZM383.218 14.6218C381.912 14.6218 380.765 14.3418 379.778 13.7818C378.805 13.2084 378.052 12.3751 377.518 11.2818C376.985 10.1884 376.718 8.86844 376.718 7.32178C376.718 5.77511 376.985 4.45511 377.518 3.36178C378.052 2.26844 378.805 1.44178 379.778 0.881776C380.765 0.308443 381.912 0.0217767 383.218 0.0217767C384.525 0.0217767 385.665 0.308443 386.638 0.881776C387.625 1.44178 388.385 2.26844 388.918 3.36178C389.452 4.45511 389.718 5.77511 389.718 7.32178C389.718 8.86844 389.452 10.1884 388.918 11.2818C388.385 12.3751 387.625 13.2084 386.638 13.7818C385.665 14.3418 384.525 14.6218 383.218 14.6218ZM383.218 14.2218C383.738 14.2218 384.218 14.0018 384.658 13.5618C385.112 13.1218 385.485 12.3884 385.778 11.3618C386.072 10.3351 386.218 8.98844 386.218 7.32178C386.218 5.65511 386.072 4.30844 385.778 3.28178C385.485 2.25511 385.112 1.52178 384.658 1.08178C384.218 0.641776 383.738 0.421776 383.218 0.421776C382.698 0.421776 382.212 0.641776 381.758 1.08178C381.318 1.52178 380.952 2.25511 380.658 3.28178C380.365 4.30844 380.218 5.65511 380.218 7.32178C380.218 8.98844 380.365 10.3351 380.658 11.3618C380.952 12.3884 381.318 13.1218 381.758 13.5618C382.212 14.0018 382.698 14.2218 383.218 14.2218ZM391.623 14.0218L392.823 13.7218V0.921777L391.623 0.621776V0.321776H397.223C399.436 0.321776 401.023 0.688443 401.983 1.42178C402.943 2.14178 403.423 3.20844 403.423 4.62178C403.423 6.03511 402.943 7.10844 401.983 7.84178C401.023 8.56178 399.436 8.92178 397.223 8.92178H396.123V13.7218L397.323 14.0218V14.3218H391.623V14.0218ZM397.223 8.42178C398.063 8.42178 398.736 8.10178 399.243 7.46178C399.763 6.82178 400.023 5.87511 400.023 4.62178C400.023 3.38178 399.763 2.44178 399.243 1.80178C398.736 1.14844 398.063 0.821777 397.223 0.821777H396.123V8.42178H397.223ZM405.119 14.0218L406.319 13.7218V0.921777L405.119 0.621776V0.321776H410.719C412.932 0.321776 414.519 0.688443 415.479 1.42178C416.439 2.14178 416.919 3.20844 416.919 4.62178C416.919 6.03511 416.439 7.10844 415.479 7.84178C414.519 8.56178 412.932 8.92178 410.719 8.92178H409.619V13.7218L410.819 14.0218V14.3218H405.119V14.0218ZM410.719 8.42178C411.559 8.42178 412.232 8.10178 412.739 7.46178C413.259 6.82178 413.519 5.87511 413.519 4.62178C413.519 3.38178 413.259 2.44178 412.739 1.80178C412.232 1.14844 411.559 0.821777 410.719 0.821777H409.619V8.42178H410.719ZM418.615 14.3218V14.0218L419.815 13.7218V0.921777L418.615 0.621776V0.321776H424.315V0.621776L423.115 0.921777V13.7218L424.315 14.0218V14.3218H418.615ZM427.915 3.72178V13.4218L429.515 14.0218V14.3218H425.715V14.0218L427.315 13.4218V1.02178L425.915 0.621776V0.321776H428.015C428.722 0.321776 429.275 0.448443 429.675 0.701776C430.075 0.95511 430.455 1.29511 430.815 1.72178L437.215 9.22178V1.22178L435.615 0.621776V0.321776H439.415V0.621776L437.815 1.22178V14.6218H437.215L427.915 3.72178ZM446.42 14.6218C445.407 14.6218 444.473 14.3351 443.62 13.7618C442.767 13.1884 442.087 12.3551 441.58 11.2618C441.073 10.1551 440.82 8.84178 440.82 7.32178C440.82 5.78844 441.08 4.47511 441.6 3.38178C442.133 2.27511 442.873 1.44178 443.82 0.881776C444.78 0.308443 445.887 0.0217767 447.14 0.0217767C447.9 0.0217767 448.667 0.241777 449.44 0.681777C449.733 0.841777 450.027 1.05511 450.32 1.32178C450.547 0.97511 450.78 0.701776 451.02 0.501776C451.26 0.328443 451.393 0.23511 451.42 0.221776H451.92V4.02178H451.12C450.947 3.38178 450.687 2.80178 450.34 2.28178C450.02 1.77511 449.62 1.35511 449.14 1.02178C448.673 0.688443 448.133 0.521776 447.52 0.521776C446.6 0.521776 445.833 1.05511 445.22 2.12178C444.62 3.18844 444.32 4.92178 444.32 7.32178C444.32 9.72178 444.587 11.4218 445.12 12.4218C445.667 13.4218 446.367 13.9218 447.22 13.9218C447.713 13.9218 448.16 13.6551 448.56 13.1218C448.707 12.9218 448.86 12.6551 449.02 12.3218V7.72178L447.82 7.42178V7.12178H453.52V7.42178L452.32 7.72178V14.4218H452.02C451.047 14.4218 450.307 14.1551 449.8 13.6218C449.573 13.3818 449.413 13.1151 449.32 12.8218C449.133 13.1551 448.913 13.4551 448.66 13.7218C448.06 14.3218 447.313 14.6218 446.42 14.6218ZM467.229 14.6218C465.096 14.6218 463.429 13.9884 462.229 12.7218C461.029 11.4551 460.429 9.65511 460.429 7.32178C460.429 5.78844 460.689 4.47511 461.209 3.38178C461.743 2.27511 462.483 1.44178 463.429 0.881776C464.389 0.308443 465.496 0.0217767 466.749 0.0217767C467.509 0.0217767 468.276 0.241777 469.049 0.681777C469.343 0.841777 469.636 1.05511 469.929 1.32178C470.156 0.97511 470.389 0.701776 470.629 0.501776C470.869 0.328443 471.003 0.23511 471.029 0.221776H471.529V4.02178H470.729C470.556 3.38178 470.296 2.80178 469.949 2.28178C469.629 1.77511 469.229 1.35511 468.749 1.02178C468.283 0.688443 467.743 0.521776 467.129 0.521776C466.209 0.521776 465.443 1.05511 464.829 2.12178C464.229 3.18844 463.929 4.92178 463.929 7.32178C463.929 9.76178 464.256 11.5084 464.909 12.5618C465.576 13.6018 466.483 14.1218 467.629 14.1218C468.256 14.1218 468.849 13.9484 469.409 13.6018C469.983 13.2418 470.443 12.7684 470.789 12.1818C471.149 11.5951 471.329 10.9751 471.329 10.3218H471.829C471.829 11.0818 471.623 11.7951 471.209 12.4618C470.809 13.1151 470.256 13.6418 469.549 14.0418C468.856 14.4284 468.083 14.6218 467.229 14.6218ZM473.537 14.0218L474.737 13.7218V0.921777L473.537 0.621776V0.321776H484.237V3.92178H483.637C483.384 3.72178 483.164 3.46844 482.977 3.16178C482.55 2.44178 482.337 1.66178 482.337 0.821777H478.037V7.12178H480.337C480.43 6.61511 480.604 6.14178 480.857 5.70178C480.964 5.50178 481.09 5.30844 481.237 5.12178H481.837V9.62178H481.237C481.09 9.43511 480.964 9.24178 480.857 9.04178C480.604 8.60178 480.43 8.12844 480.337 7.62178H478.037V13.8218H482.737C482.737 12.9818 482.95 12.2018 483.377 11.4818C483.564 11.1751 483.784 10.9218 484.037 10.7218H484.637V14.3218H473.537V14.0218ZM488.228 3.72178V13.4218L489.828 14.0218V14.3218H486.028V14.0218L487.628 13.4218V1.02178L486.228 0.621776V0.321776H488.328C489.034 0.321776 489.588 0.448443 489.988 0.701776C490.388 0.95511 490.768 1.29511 491.128 1.72178L497.528 9.22178V1.22178L495.928 0.621776V0.321776H499.728V0.621776L498.128 1.22178V14.6218H497.528L488.228 3.72178ZM503.732 14.0218L504.932 13.7218V0.821777H502.632C502.632 1.63511 502.412 2.41511 501.972 3.16178C501.786 3.46844 501.572 3.72178 501.332 3.92178H500.732V0.321776H512.432V3.92178H511.832C511.579 3.72178 511.359 3.46844 511.172 3.16178C510.746 2.44178 510.532 1.66178 510.532 0.821777H508.232V13.7218L509.432 14.0218V14.3218H503.732V14.0218ZM513.928 14.0218L515.128 13.7218V0.921777L513.928 0.621776V0.321776H524.628V3.92178H524.028C523.774 3.72178 523.554 3.46844 523.368 3.16178C522.941 2.44178 522.728 1.66178 522.728 0.821777H518.428V7.12178H520.728C520.821 6.61511 520.994 6.14178 521.248 5.70178C521.354 5.50178 521.481 5.30844 521.628 5.12178H522.228V9.62178H521.628C521.481 9.43511 521.354 9.24178 521.248 9.04178C520.994 8.60178 520.821 8.12844 520.728 7.62178H518.428V13.8218H523.128C523.128 12.9818 523.341 12.2018 523.768 11.4818C523.954 11.1751 524.174 10.9218 524.428 10.7218H525.028V14.3218H513.928V14.0218ZM526.818 14.0218L528.018 13.7218V0.921777L526.818 0.621776V0.321776H532.118C534.385 0.321776 536.018 0.668443 537.018 1.36178C538.018 2.04178 538.518 2.99511 538.518 4.22178C538.518 5.04844 538.298 5.72178 537.858 6.24178C537.418 6.74844 536.852 7.12844 536.158 7.38178C535.425 7.66178 534.645 7.80844 533.818 7.82178V7.92178C534.312 7.94844 534.745 8.02178 535.118 8.14178C536.052 8.43511 536.685 8.96178 537.018 9.72178L538.818 13.7218L539.818 14.0218V14.3218H537.018C535.925 14.3218 535.125 13.7551 534.618 12.6218L532.618 8.12178H531.318V13.7218L532.718 14.0218V14.3218H526.818V14.0218ZM532.118 7.62178C533.052 7.62178 533.785 7.32844 534.318 6.74178C534.852 6.15511 535.118 5.31511 535.118 4.22178C535.118 3.12844 534.852 2.28844 534.318 1.70178C533.785 1.11511 533.052 0.821777 532.118 0.821777H531.318V7.62178H532.118ZM107.238 42.0218L108.438 41.7218V28.9218L107.238 28.6218V28.3218H112.338C114.725 28.3218 116.552 28.9351 117.818 30.1618C119.098 31.3884 119.738 33.1084 119.738 35.3218C119.738 37.5351 119.098 39.2551 117.818 40.4818C116.552 41.7084 114.725 42.3218 112.338 42.3218H107.238V42.0218ZM112.338 41.8218C113.578 41.8218 114.538 41.3218 115.218 40.3218C115.898 39.3084 116.238 37.6418 116.238 35.3218C116.238 33.0018 115.898 31.3418 115.218 30.3418C114.538 29.3284 113.578 28.8218 112.338 28.8218H111.738V41.8218H112.338ZM121.535 42.0218L122.735 41.7218V28.9218L121.535 28.6218V28.3218H132.235V31.9218H131.635C131.382 31.7218 131.162 31.4684 130.975 31.1618C130.548 30.4418 130.335 29.6618 130.335 28.8218H126.035V35.1218H128.335C128.428 34.6151 128.602 34.1418 128.855 33.7018C128.962 33.5018 129.088 33.3084 129.235 33.1218H129.835V37.6218H129.235C129.088 37.4351 128.962 37.2418 128.855 37.0418C128.602 36.6018 128.428 36.1284 128.335 35.6218H126.035V41.8218H130.735C130.735 40.9818 130.948 40.2018 131.375 39.4818C131.562 39.1751 131.782 38.9218 132.035 38.7218H132.635V42.3218H121.535V42.0218ZM140.93 42.6218C138.797 42.6218 137.13 41.9884 135.93 40.7218C134.73 39.4551 134.13 37.6551 134.13 35.3218C134.13 33.7884 134.39 32.4751 134.91 31.3818C135.444 30.2751 136.184 29.4418 137.13 28.8818C138.09 28.3084 139.197 28.0218 140.45 28.0218C141.21 28.0218 141.977 28.2418 142.75 28.6818C143.044 28.8418 143.337 29.0551 143.63 29.3218C143.857 28.9751 144.09 28.7018 144.33 28.5018C144.57 28.3284 144.704 28.2351 144.73 28.2218H145.23V32.0218H144.43C144.257 31.3818 143.997 30.8018 143.65 30.2818C143.33 29.7751 142.93 29.3551 142.45 29.0218C141.984 28.6884 141.444 28.5218 140.83 28.5218C139.91 28.5218 139.144 29.0551 138.53 30.1218C137.93 31.1884 137.63 32.9218 137.63 35.3218C137.63 37.7618 137.957 39.5084 138.61 40.5618C139.277 41.6018 140.184 42.1218 141.33 42.1218C141.957 42.1218 142.55 41.9484 143.11 41.6018C143.684 41.2418 144.144 40.7684 144.49 40.1818C144.85 39.5951 145.03 38.9751 145.03 38.3218H145.53C145.53 39.0818 145.324 39.7951 144.91 40.4618C144.51 41.1151 143.957 41.6418 143.25 42.0418C142.557 42.4284 141.784 42.6218 140.93 42.6218ZM153.248 42.6218C151.941 42.6218 150.794 42.3418 149.808 41.7818C148.834 41.2084 148.081 40.3751 147.548 39.2818C147.014 38.1884 146.748 36.8684 146.748 35.3218C146.748 33.7751 147.014 32.4551 147.548 31.3618C148.081 30.2684 148.834 29.4418 149.808 28.8818C150.794 28.3084 151.941 28.0218 153.248 28.0218C154.554 28.0218 155.694 28.3084 156.668 28.8818C157.654 29.4418 158.414 30.2684 158.948 31.3618C159.481 32.4551 159.748 33.7751 159.748 35.3218C159.748 36.8684 159.481 38.1884 158.948 39.2818C158.414 40.3751 157.654 41.2084 156.668 41.7818C155.694 42.3418 154.554 42.6218 153.248 42.6218ZM153.248 42.2218C153.768 42.2218 154.248 42.0018 154.688 41.5618C155.141 41.1218 155.514 40.3884 155.808 39.3618C156.101 38.3351 156.248 36.9884 156.248 35.3218C156.248 33.6551 156.101 32.3084 155.808 31.2818C155.514 30.2551 155.141 29.5218 154.688 29.0818C154.248 28.6418 153.768 28.4218 153.248 28.4218C152.728 28.4218 152.241 28.6418 151.788 29.0818C151.348 29.5218 150.981 30.2551 150.688 31.2818C150.394 32.3084 150.248 33.6551 150.248 35.3218C150.248 36.9884 150.394 38.3351 150.688 39.3618C150.981 40.3884 151.348 41.1218 151.788 41.5618C152.241 42.0018 152.728 42.2218 153.248 42.2218ZM161.652 42.0218L162.852 41.7218V28.9218L161.652 28.6218V28.3218H166.952C169.219 28.3218 170.852 28.6684 171.852 29.3618C172.852 30.0418 173.352 30.9951 173.352 32.2218C173.352 33.0484 173.132 33.7218 172.692 34.2418C172.252 34.7484 171.686 35.1284 170.992 35.3818C170.259 35.6618 169.479 35.8084 168.652 35.8218V35.9218C169.146 35.9484 169.579 36.0218 169.952 36.1418C170.886 36.4351 171.519 36.9618 171.852 37.7218L173.652 41.7218L174.652 42.0218V42.3218H171.852C170.759 42.3218 169.959 41.7551 169.452 40.6218L167.452 36.1218H166.152V41.7218L167.552 42.0218V42.3218H161.652V42.0218ZM166.952 35.6218C167.886 35.6218 168.619 35.3284 169.152 34.7418C169.686 34.1551 169.952 33.3151 169.952 32.2218C169.952 31.1284 169.686 30.2884 169.152 29.7018C168.619 29.1151 167.886 28.8218 166.952 28.8218H166.152V35.6218H166.952ZM182.361 42.6218C180.388 42.6218 178.894 42.1618 177.881 41.2418C176.868 40.3084 176.361 39.0018 176.361 37.3218V28.9218L175.161 28.6218V28.3218H180.861V28.6218L179.661 28.9218V37.3218C179.661 39.0418 179.928 40.2751 180.461 41.0218C180.994 41.7551 181.761 42.1218 182.761 42.1218C183.374 42.1218 183.954 41.9284 184.501 41.5418C185.061 41.1418 185.508 40.5818 185.841 39.8618C186.188 39.1284 186.361 38.2818 186.361 37.3218V29.2218L184.761 28.6218V28.3218H188.561V28.6218L186.961 29.2218V37.3218C186.961 38.4018 186.761 39.3418 186.361 40.1418C185.961 40.9418 185.414 41.5551 184.721 41.9818C184.028 42.4084 183.241 42.6218 182.361 42.6218ZM191.46 30.8218V41.4218L193.06 42.0218V42.3218H189.26V42.0218L190.86 41.4218V28.9218L189.66 28.6218V28.3218H192.16C192.853 28.3218 193.4 28.4684 193.8 28.7618C194.213 29.0418 194.567 29.4618 194.86 30.0218L199.22 38.3618L202.56 30.0218C202.787 29.4351 203.093 29.0084 203.48 28.7418C203.867 28.4618 204.46 28.3218 205.26 28.3218H207.36V28.6218L206.16 28.9218V41.7218L207.36 42.0218V42.3218H201.66V42.0218L202.86 41.7218V30.8218L198.16 42.5218H197.56L191.46 30.8218ZM217.473 42.0218L218.673 41.7218V28.8218H216.373C216.373 29.6351 216.153 30.4151 215.713 31.1618C215.526 31.4684 215.313 31.7218 215.073 31.9218H214.473V28.3218H226.173V31.9218H225.573C225.319 31.7218 225.099 31.4684 224.913 31.1618C224.486 30.4418 224.273 29.6618 224.273 28.8218H221.973V41.7218L223.173 42.0218V42.3218H217.473V42.0218ZM227.668 42.0218L228.868 41.7218V28.9218L227.668 28.6218V28.3218H238.368V31.9218H237.768C237.515 31.7218 237.295 31.4684 237.108 31.1618C236.681 30.4418 236.468 29.6618 236.468 28.8218H232.168V35.1218H234.468C234.561 34.6151 234.735 34.1418 234.988 33.7018C235.095 33.5018 235.221 33.3084 235.368 33.1218H235.968V37.6218H235.368C235.221 37.4351 235.095 37.2418 234.988 37.0418C234.735 36.6018 234.561 36.1284 234.468 35.6218H232.168V41.8218H236.868C236.868 40.9818 237.081 40.2018 237.508 39.4818C237.695 39.1751 237.915 38.9218 238.168 38.7218H238.768V42.3218H227.668V42.0218ZM240.559 42.0218L241.759 41.7218V28.9218L240.559 28.6218V28.3218H246.259V28.6218L245.059 28.9218V41.8218H249.359C249.359 40.9818 249.572 40.2018 249.999 39.4818C250.185 39.1751 250.405 38.9218 250.659 38.7218H251.259V42.3218H240.559V42.0218ZM262.071 40.4218V36.1218H258.071V35.2218H262.071V30.9218H262.971V35.2218H266.971V36.1218H262.971V40.4218H262.071ZM270.564 42.3218C270.564 41.0018 270.744 39.8351 271.104 38.8218C271.477 37.7951 271.924 36.9218 272.444 36.2018C272.964 35.4684 273.644 34.6418 274.484 33.7218C275.217 32.9218 275.791 32.2418 276.204 31.6818C276.631 31.1084 276.951 30.4884 277.164 29.8218H270.064C269.971 30.5418 269.744 31.1418 269.384 31.6218C269.237 31.8484 269.064 32.0484 268.864 32.2218H268.264V28.3218H277.764V29.2218C277.764 29.9684 277.644 30.6618 277.404 31.3018C277.177 31.9418 276.817 32.7684 276.324 33.7818C275.844 34.7284 275.451 35.5684 275.144 36.3018C274.851 37.0351 274.597 37.9151 274.384 38.9418C274.171 39.9551 274.064 41.0818 274.064 42.3218H270.564ZM290.475 47.1218C288.835 46.0418 287.488 44.6351 286.435 42.9018C285.395 41.1818 284.875 39.2218 284.875 37.0218C284.875 34.8218 285.388 32.8751 286.415 31.1818C287.455 29.4751 288.808 28.0551 290.475 26.9218L290.675 27.2218C289.888 28.2484 289.288 29.6151 288.875 31.3218C288.475 33.0284 288.275 34.9284 288.275 37.0218C288.275 39.1151 288.475 41.0151 288.875 42.7218C289.288 44.4284 289.888 45.7951 290.675 46.8218L290.475 47.1218ZM296.484 42.6218C295.698 42.6218 295.004 42.4951 294.404 42.2418C293.818 41.9751 293.364 41.6418 293.044 41.2418C292.738 40.8418 292.584 40.4351 292.584 40.0218C292.584 39.5684 292.718 39.2084 292.984 38.9418C293.264 38.6618 293.631 38.5218 294.084 38.5218C294.191 38.5218 294.298 38.5351 294.404 38.5618C294.511 38.5751 294.584 38.5818 294.624 38.5818L294.884 38.6218V41.8218L295.264 41.9818C295.504 42.0751 295.778 42.1218 296.084 42.1218C296.738 42.1218 297.271 41.9484 297.684 41.6018C298.098 41.2551 298.418 40.6151 298.644 39.6818C298.871 38.7484 298.984 37.4284 298.984 35.7218C298.864 35.9218 298.678 36.1218 298.424 36.3218C297.918 36.7218 297.338 36.9218 296.684 36.9218C295.711 36.9218 294.858 36.7418 294.124 36.3818C293.404 36.0084 292.851 35.4951 292.464 34.8418C292.078 34.1884 291.884 33.4484 291.884 32.6218C291.884 31.1951 292.324 30.0751 293.204 29.2618C294.098 28.4351 295.358 28.0218 296.984 28.0218C298.664 28.0218 299.984 28.6218 300.944 29.8218C301.904 31.0218 302.384 32.8551 302.384 35.3218C302.384 37.7218 301.858 39.5418 300.804 40.7818C299.764 42.0084 298.324 42.6218 296.484 42.6218ZM297.084 36.4218C297.631 36.4218 298.064 36.1551 298.384 35.6218C298.718 35.0884 298.884 34.2551 298.884 33.1218C298.884 31.4284 298.698 30.2218 298.324 29.5018C297.964 28.7818 297.518 28.4218 296.984 28.4218C296.718 28.4218 296.451 28.5551 296.184 28.8218C295.931 29.0884 295.718 29.5218 295.544 30.1218C295.371 30.7218 295.284 31.4884 295.284 32.4218C295.284 33.3551 295.371 34.1218 295.544 34.7218C295.731 35.3218 295.958 35.7551 296.224 36.0218C296.504 36.2884 296.791 36.4218 297.084 36.4218ZM303.596 41.4218C303.596 40.6351 303.749 39.9218 304.056 39.2818C304.376 38.6284 304.763 38.0618 305.216 37.5818C305.669 37.1018 306.263 36.5351 306.996 35.8818C307.676 35.2818 308.209 34.7818 308.596 34.3818C308.983 33.9684 309.309 33.5084 309.576 33.0018C309.843 32.4818 309.976 31.9218 309.976 31.3218C309.976 30.4418 309.763 29.7551 309.336 29.2618C308.909 28.7684 308.356 28.5218 307.676 28.5218C307.289 28.5218 306.896 28.5751 306.496 28.6818L306.076 28.8218V32.0218L305.816 32.0818C305.603 32.1084 305.423 32.1218 305.276 32.1218C304.823 32.1218 304.456 31.9884 304.176 31.7218C303.909 31.4418 303.776 31.0751 303.776 30.6218C303.776 30.1951 303.936 29.7818 304.256 29.3818C304.589 28.9818 305.076 28.6551 305.716 28.4018C306.369 28.1484 307.156 28.0218 308.076 28.0218C309.876 28.0218 311.209 28.3818 312.076 29.1018C312.943 29.8218 313.376 30.8284 313.376 32.1218C313.376 32.9351 313.163 33.6351 312.736 34.2218C312.323 34.8084 311.809 35.2951 311.196 35.6818C310.596 36.0684 309.789 36.5084 308.776 37.0018C307.923 37.4151 307.229 37.7818 306.696 38.1018C306.176 38.4084 305.689 38.7818 305.236 39.2218C304.796 39.6618 304.483 40.1618 304.296 40.7218H311.696C311.789 40.0018 312.016 39.4018 312.376 38.9218C312.523 38.6951 312.696 38.4951 312.896 38.3218H313.496V42.3218H303.596V41.4218ZM320.4 42.6218C318.72 42.6218 317.447 42.2884 316.58 41.6218C315.727 40.9551 315.3 40.0884 315.3 39.0218C315.3 38.2884 315.62 37.5818 316.26 36.9018C316.9 36.2084 317.68 35.7151 318.6 35.4218C317.72 34.9284 317.047 34.3884 316.58 33.8018C316.127 33.2018 315.9 32.4751 315.9 31.6218C315.9 30.5551 316.327 29.6884 317.18 29.0218C318.047 28.3551 319.32 28.0218 321 28.0218C321.84 28.0218 322.573 28.1751 323.2 28.4818C323.84 28.7884 324.333 29.1884 324.68 29.6818C325.027 30.1751 325.2 30.6884 325.2 31.2218C325.2 31.8484 324.927 32.4551 324.38 33.0418C323.847 33.6284 323.22 34.0218 322.5 34.2218C323.713 34.7551 324.633 35.3884 325.26 36.1218C325.887 36.8551 326.2 37.7551 326.2 38.8218C326.2 39.5151 325.987 40.1484 325.56 40.7218C325.133 41.2951 324.487 41.7551 323.62 42.1018C322.753 42.4484 321.68 42.6218 320.4 42.6218ZM321.9 33.8218C322.407 33.5951 322.813 33.2684 323.12 32.8418C323.44 32.4151 323.6 31.8751 323.6 31.2218C323.6 30.7418 323.48 30.2951 323.24 29.8818C323.013 29.4684 322.713 29.1418 322.34 28.9018C321.98 28.6484 321.6 28.5218 321.2 28.5218C320.627 28.5218 320.147 28.7484 319.76 29.2018C319.387 29.6418 319.2 30.2484 319.2 31.0218C319.2 32.0884 320.1 33.0218 321.9 33.8218ZM320.2 42.1218C321.053 42.1218 321.713 41.8884 322.18 41.4218C322.66 40.9418 322.9 40.2751 322.9 39.4218C322.9 38.7818 322.58 38.1351 321.94 37.4818C321.3 36.8284 320.453 36.2751 319.4 35.8218C318.653 36.0884 318.067 36.4884 317.64 37.0218C317.213 37.5418 317 38.2084 317 39.0218C317 39.5818 317.14 40.1018 317.42 40.5818C317.713 41.0484 318.1 41.4218 318.58 41.7018C319.073 41.9818 319.613 42.1218 320.2 42.1218ZM327.105 46.8218C327.891 45.7951 328.485 44.4284 328.885 42.7218C329.298 41.0151 329.505 39.1151 329.505 37.0218C329.505 34.9284 329.298 33.0284 328.885 31.3218C328.485 29.6151 327.891 28.2484 327.105 27.2218L327.305 26.9218C328.971 28.0551 330.318 29.4751 331.345 31.1818C332.385 32.8751 332.905 34.8218 332.905 37.0218C332.905 39.2218 332.378 41.1818 331.325 42.9018C330.285 44.6351 328.945 46.0418 327.305 47.1218L327.105 46.8218ZM342.42 42.3218C342.42 41.0018 342.6 39.8351 342.96 38.8218C343.333 37.7951 343.78 36.9218 344.3 36.2018C344.82 35.4684 345.5 34.6418 346.34 33.7218C347.073 32.9218 347.646 32.2418 348.06 31.6818C348.486 31.1084 348.806 30.4884 349.02 29.8218H341.92C341.826 30.5418 341.6 31.1418 341.24 31.6218C341.093 31.8484 340.92 32.0484 340.72 32.2218H340.12V28.3218H349.62V29.2218C349.62 29.9684 349.5 30.6618 349.26 31.3018C349.033 31.9418 348.673 32.7684 348.18 33.7818C347.7 34.7284 347.306 35.5684 347 36.3018C346.706 37.0351 346.453 37.9151 346.24 38.9418C346.026 39.9551 345.92 41.0818 345.92 42.3218H342.42ZM356.134 42.6218C354.454 42.6218 353.134 42.0218 352.174 40.8218C351.214 39.6218 350.734 37.7884 350.734 35.3218C350.734 32.9218 351.254 31.1084 352.294 29.8818C353.348 28.6418 354.794 28.0218 356.634 28.0218C357.421 28.0218 358.108 28.1551 358.694 28.4218C359.294 28.6751 359.748 29.0018 360.054 29.4018C360.374 29.8018 360.534 30.2084 360.534 30.6218C360.534 31.0751 360.394 31.4418 360.114 31.7218C359.848 31.9884 359.488 32.1218 359.034 32.1218C358.848 32.1218 358.661 32.1084 358.474 32.0818L358.234 32.0218V28.8218L357.854 28.6818C357.561 28.5751 357.288 28.5218 357.034 28.5218C356.381 28.5218 355.841 28.6951 355.414 29.0418C355.001 29.3884 354.681 30.0284 354.454 30.9618C354.241 31.8951 354.134 33.2151 354.134 34.9218C354.281 34.6951 354.461 34.4951 354.674 34.3218C355.181 33.9218 355.768 33.7218 356.434 33.7218C357.408 33.7218 358.254 33.9084 358.974 34.2818C359.708 34.6418 360.268 35.1484 360.654 35.8018C361.041 36.4551 361.234 37.1951 361.234 38.0218C361.234 39.4484 360.788 40.5751 359.894 41.4018C359.014 42.2151 357.761 42.6218 356.134 42.6218ZM356.134 42.2218C356.401 42.2218 356.661 42.0884 356.914 41.8218C357.181 41.5551 357.401 41.1218 357.574 40.5218C357.748 39.9218 357.834 39.1551 357.834 38.2218C357.834 37.2884 357.741 36.5218 357.554 35.9218C357.381 35.3218 357.154 34.8884 356.874 34.6218C356.608 34.3551 356.328 34.2218 356.034 34.2218C355.488 34.2218 355.048 34.4884 354.714 35.0218C354.394 35.5551 354.234 36.3884 354.234 37.5218C354.234 39.2151 354.414 40.4218 354.774 41.1418C355.148 41.8618 355.601 42.2218 356.134 42.2218ZM368.037 42.6218C366.357 42.6218 365.083 42.2884 364.217 41.6218C363.363 40.9551 362.937 40.0884 362.937 39.0218C362.937 38.2884 363.257 37.5818 363.897 36.9018C364.537 36.2084 365.317 35.7151 366.237 35.4218C365.357 34.9284 364.683 34.3884 364.217 33.8018C363.763 33.2018 363.537 32.4751 363.537 31.6218C363.537 30.5551 363.963 29.6884 364.817 29.0218C365.683 28.3551 366.957 28.0218 368.637 28.0218C369.477 28.0218 370.21 28.1751 370.837 28.4818C371.477 28.7884 371.97 29.1884 372.317 29.6818C372.663 30.1751 372.837 30.6884 372.837 31.2218C372.837 31.8484 372.563 32.4551 372.017 33.0418C371.483 33.6284 370.857 34.0218 370.137 34.2218C371.35 34.7551 372.27 35.3884 372.897 36.1218C373.523 36.8551 373.837 37.7551 373.837 38.8218C373.837 39.5151 373.623 40.1484 373.197 40.7218C372.77 41.2951 372.123 41.7551 371.257 42.1018C370.39 42.4484 369.317 42.6218 368.037 42.6218ZM369.537 33.8218C370.043 33.5951 370.45 33.2684 370.757 32.8418C371.077 32.4151 371.237 31.8751 371.237 31.2218C371.237 30.7418 371.117 30.2951 370.877 29.8818C370.65 29.4684 370.35 29.1418 369.977 28.9018C369.617 28.6484 369.237 28.5218 368.837 28.5218C368.263 28.5218 367.783 28.7484 367.397 29.2018C367.023 29.6418 366.837 30.2484 366.837 31.0218C366.837 32.0884 367.737 33.0218 369.537 33.8218ZM367.837 42.1218C368.69 42.1218 369.35 41.8884 369.817 41.4218C370.297 40.9418 370.537 40.2751 370.537 39.4218C370.537 38.7818 370.217 38.1351 369.577 37.4818C368.937 36.8284 368.09 36.2751 367.037 35.8218C366.29 36.0884 365.703 36.4884 365.277 37.0218C364.85 37.5418 364.637 38.2084 364.637 39.0218C364.637 39.5818 364.777 40.1018 365.057 40.5818C365.35 41.0484 365.737 41.4218 366.217 41.7018C366.71 41.9818 367.25 42.1218 367.837 42.1218ZM384.847 42.6218C383.927 42.6218 383.14 42.4951 382.487 42.2418C381.847 41.9884 381.36 41.6618 381.027 41.2618C380.707 40.8618 380.547 40.4484 380.547 40.0218C380.547 39.5684 380.68 39.2084 380.947 38.9418C381.227 38.6618 381.594 38.5218 382.047 38.5218C382.154 38.5218 382.26 38.5351 382.367 38.5618C382.474 38.5751 382.547 38.5818 382.587 38.5818L382.847 38.6218V41.8218C382.86 41.8218 383 41.8751 383.267 41.9818C383.614 42.0751 384.007 42.1218 384.447 42.1218C385.38 42.1218 386.094 41.8418 386.587 41.2818C387.094 40.7084 387.347 39.8551 387.347 38.7218C387.347 37.5618 387.1 36.6884 386.607 36.1018C386.127 35.5151 385.474 35.2218 384.647 35.2218H383.647V34.7218H384.647C385.247 34.7218 385.747 34.4551 386.147 33.9218C386.547 33.3884 386.747 32.6218 386.747 31.6218C386.747 30.6218 386.54 29.8551 386.127 29.3218C385.714 28.7884 385.187 28.5218 384.547 28.5218C384.2 28.5218 383.867 28.5751 383.547 28.6818C383.507 28.6951 383.374 28.7418 383.147 28.8218V32.0218L382.887 32.0818C382.674 32.1084 382.494 32.1218 382.347 32.1218C381.894 32.1218 381.527 31.9884 381.247 31.7218C380.98 31.4418 380.847 31.0751 380.847 30.6218C380.847 30.2084 381.007 29.8018 381.327 29.4018C381.647 29.0018 382.114 28.6751 382.727 28.4218C383.354 28.1551 384.094 28.0218 384.947 28.0218C386.067 28.0218 387.014 28.1884 387.787 28.5218C388.574 28.8418 389.16 29.2751 389.547 29.8218C389.947 30.3684 390.147 30.9684 390.147 31.6218C390.147 32.3818 389.954 32.9884 389.567 33.4418C389.18 33.8818 388.674 34.2351 388.047 34.5018C387.434 34.7418 386.734 34.8818 385.947 34.9218V35.0218C386.827 35.0618 387.627 35.2151 388.347 35.4818C389.947 36.1218 390.747 37.2018 390.747 38.7218C390.747 39.8951 390.26 40.8418 389.287 41.5618C388.327 42.2684 386.847 42.6218 384.847 42.6218ZM392.346 41.4218C392.346 40.6351 392.499 39.9218 392.806 39.2818C393.126 38.6284 393.513 38.0618 393.966 37.5818C394.419 37.1018 395.013 36.5351 395.746 35.8818C396.426 35.2818 396.959 34.7818 397.346 34.3818C397.733 33.9684 398.059 33.5084 398.326 33.0018C398.593 32.4818 398.726 31.9218 398.726 31.3218C398.726 30.4418 398.513 29.7551 398.086 29.2618C397.659 28.7684 397.106 28.5218 396.426 28.5218C396.039 28.5218 395.646 28.5751 395.246 28.6818L394.826 28.8218V32.0218L394.566 32.0818C394.353 32.1084 394.173 32.1218 394.026 32.1218C393.573 32.1218 393.206 31.9884 392.926 31.7218C392.659 31.4418 392.526 31.0751 392.526 30.6218C392.526 30.1951 392.686 29.7818 393.006 29.3818C393.339 28.9818 393.826 28.6551 394.466 28.4018C395.119 28.1484 395.906 28.0218 396.826 28.0218C398.626 28.0218 399.959 28.3818 400.826 29.1018C401.693 29.8218 402.126 30.8284 402.126 32.1218C402.126 32.9351 401.913 33.6351 401.486 34.2218C401.073 34.8084 400.559 35.2951 399.946 35.6818C399.346 36.0684 398.539 36.5084 397.526 37.0018C396.673 37.4151 395.979 37.7818 395.446 38.1018C394.926 38.4084 394.439 38.7818 393.986 39.2218C393.546 39.6618 393.233 40.1618 393.046 40.7218H400.446C400.539 40.0018 400.766 39.4018 401.126 38.9218C401.273 38.6951 401.446 38.4951 401.646 38.3218H402.246V42.3218H392.346V41.4218ZM409.455 41.4218C409.455 40.6351 409.609 39.9218 409.915 39.2818C410.235 38.6284 410.622 38.0618 411.075 37.5818C411.529 37.1018 412.122 36.5351 412.855 35.8818C413.535 35.2818 414.069 34.7818 414.455 34.3818C414.842 33.9684 415.169 33.5084 415.435 33.0018C415.702 32.4818 415.835 31.9218 415.835 31.3218C415.835 30.4418 415.622 29.7551 415.195 29.2618C414.769 28.7684 414.215 28.5218 413.535 28.5218C413.149 28.5218 412.755 28.5751 412.355 28.6818L411.935 28.8218V32.0218L411.675 32.0818C411.462 32.1084 411.282 32.1218 411.135 32.1218C410.682 32.1218 410.315 31.9884 410.035 31.7218C409.769 31.4418 409.635 31.0751 409.635 30.6218C409.635 30.1951 409.795 29.7818 410.115 29.3818C410.449 28.9818 410.935 28.6551 411.575 28.4018C412.229 28.1484 413.015 28.0218 413.935 28.0218C415.735 28.0218 417.069 28.3818 417.935 29.1018C418.802 29.8218 419.235 30.8284 419.235 32.1218C419.235 32.9351 419.022 33.6351 418.595 34.2218C418.182 34.8084 417.669 35.2951 417.055 35.6818C416.455 36.0684 415.649 36.5084 414.635 37.0018C413.782 37.4151 413.089 37.7818 412.555 38.1018C412.035 38.4084 411.549 38.7818 411.095 39.2218C410.655 39.6618 410.342 40.1618 410.155 40.7218H417.555C417.649 40.0018 417.875 39.4018 418.235 38.9218C418.382 38.6951 418.555 38.4951 418.755 38.3218H419.355V42.3218H409.455V41.4218ZM425.859 42.6218C425.073 42.6218 424.379 42.4951 423.779 42.2418C423.193 41.9751 422.739 41.6418 422.419 41.2418C422.113 40.8418 421.959 40.4351 421.959 40.0218C421.959 39.5684 422.093 39.2084 422.359 38.9418C422.639 38.6618 423.006 38.5218 423.459 38.5218C423.566 38.5218 423.673 38.5351 423.779 38.5618C423.886 38.5751 423.959 38.5818 423.999 38.5818L424.259 38.6218V41.8218L424.639 41.9818C424.879 42.0751 425.153 42.1218 425.459 42.1218C426.113 42.1218 426.646 41.9484 427.059 41.6018C427.473 41.2551 427.793 40.6151 428.019 39.6818C428.246 38.7484 428.359 37.4284 428.359 35.7218C428.239 35.9218 428.053 36.1218 427.799 36.3218C427.293 36.7218 426.713 36.9218 426.059 36.9218C425.086 36.9218 424.233 36.7418 423.499 36.3818C422.779 36.0084 422.226 35.4951 421.839 34.8418C421.453 34.1884 421.259 33.4484 421.259 32.6218C421.259 31.1951 421.699 30.0751 422.579 29.2618C423.473 28.4351 424.733 28.0218 426.359 28.0218C428.039 28.0218 429.359 28.6218 430.319 29.8218C431.279 31.0218 431.759 32.8551 431.759 35.3218C431.759 37.7218 431.233 39.5418 430.179 40.7818C429.139 42.0084 427.699 42.6218 425.859 42.6218ZM426.459 36.4218C427.006 36.4218 427.439 36.1551 427.759 35.6218C428.093 35.0884 428.259 34.2551 428.259 33.1218C428.259 31.4284 428.073 30.2218 427.699 29.5018C427.339 28.7818 426.893 28.4218 426.359 28.4218C426.093 28.4218 425.826 28.5551 425.559 28.8218C425.306 29.0884 425.093 29.5218 424.919 30.1218C424.746 30.7218 424.659 31.4884 424.659 32.4218C424.659 33.3551 424.746 34.1218 424.919 34.7218C425.106 35.3218 425.333 35.7551 425.599 36.0218C425.879 36.2884 426.166 36.4218 426.459 36.4218Z" fill="#E3B873"/>
</svg>
